<svg xmlns="http://www.w3.org/2000/svg" viewBox="0 0 128 128">
  <rect width="128" height="128" rx="28" fill="none" />

  <defs>
    <filter id="goo" x="-20%" y="-20%" width="140%" height="140%">
      <feGaussianBlur in="SourceGraphic" stdDeviation="3.5" result="blur" />
      <feColorMatrix in="blur" mode="matrix" values="1 0 0 0 0  0 1 0 0 0  0 0 1 0 0  0 0 0 18 -7" result="goo" />
      <feComposite in="SourceGraphic" in2="goo" operator="atop" />
    </filter>
  </defs>

  <g filter="url(#goo)">

    <circle cx="64" cy="64" r="15" fill="#FFFFFF" />

    <path d="M 64,49 C 74,37 78,19 64,11 C 50,19 54,37 64,49 Z" fill="#FF4D4D" />

    <path d="M 64,49 C 74,37 78,19 64,11 C 50,19 54,37 64,49 Z" fill="#FF9E4D" transform="rotate(51.4 64 64)" />

    <path d="M 64,49 C 74,37 78,19 64,11 C 50,19 54,37 64,49 Z" fill="#F9FF4D" transform="rotate(102.9 64 64)" />

    <path d="M 64,49 C 74,37 78,19 64,11 C 50,19 54,37 64,49 Z" fill="#4DFF4D" transform="rotate(154.3 64 64)" />

    <path d="M 64,49 C 74,37 78,19 64,11 C 50,19 54,37 64,49 Z" fill="#4DFFFF" transform="rotate(205.7 64 64)" />

    <path d="M 64,49 C 74,37 78,19 64,11 C 50,19 54,37 64,49 Z" fill="#4D4DFF" transform="rotate(257.1 64 64)" />

    <path d="M 64,49 C 74,37 78,19 64,11 C 50,19 54,37 64,49 Z" fill="#9E4DFF" transform="rotate(308.6 64 64)" />

  </g>
</svg>